<?xml version="1.0" encoding="UTF-8" standalone="no"?> <!DOCTYPE svg PUBLIC "-//W3C//DTD SVG 1.1//EN" "http://www.w3.org/Graphics/SVG/1.1/DTD/svg11.dtd"> <svg width="100%" height="100%" viewBox="0 0 125 125" version="1.1" xmlns="http://www.w3.org/2000/svg" xmlns:xlink="http://www.w3.org/1999/xlink" xml:space="preserve" xmlns:serif="http://www.serif.com/" style="fill-rule:evenodd;clip-rule:evenodd;stroke-linejoin:round;stroke-miterlimit:2;"> <g transform="matrix(1,0,0,1,-59.9014,-204.882)"> <g transform="matrix(0.411303,0,0,0.411303,28.6304,171.421)"> <circle cx="126.332" cy="131.659" r="45.44" style="fill:rgb(55,173,255);"/> </g> <g transform="matrix(0.411303,0,0,0.411303,28.6304,212.8)"> <circle cx="126.332" cy="131.659" r="45.44" style="fill:rgb(255,159,0);"/> </g> <g transform="matrix(0.411303,0,0,0.411303,28.6304,254.179)"> <circle cx="126.332" cy="131.659" r="45.44" style="fill:rgb(255,75,218);"/> </g> <g transform="matrix(0.411303,0,0,0.411303,70.0097,171.421)"> <circle cx="126.332" cy="131.659" r="45.44" style="fill:rgb(0,199,154);"/> </g> <g transform="matrix(0.411303,0,0,0.411303,70.0097,212.8)"> <circle cx="126.332" cy="131.659" r="45.44" style="fill:rgb(235,235,235);"/> </g> <g transform="matrix(0.411303,0,0,0.411303,111.389,171.421)"> <circle cx="126.332" cy="131.659" r="45.44" style="fill:rgb(81,205,0);"/> </g> <g transform="matrix(0.411303,0,0,0.411303,111.389,212.8)"> <circle cx="126.332" cy="131.659" r="45.44" style="fill:rgb(255,97,61);"/> </g> <g transform="matrix(0.411303,0,0,0.411303,111.389,254.179)"> <circle cx="126.332" cy="131.659" r="45.44" style="fill:rgb(176,72,248);"/> </g> <g transform="matrix(0.411303,0,0,0.411303,70.0097,254.179)"> <circle cx="126.332" cy="131.659" r="45.44" style="fill:rgb(255,203,0);"/> </g> </g> </svg>