<?xml version="1.0" encoding="UTF-8" standalone="no"?>
<!DOCTYPE svg PUBLIC "-//W3C//DTD SVG 1.1//EN" "http://www.w3.org/Graphics/SVG/1.1/DTD/svg11.dtd">
<svg width="100%" height="100%" viewBox="0 0 48 48" version="1.1" xmlns="http://www.w3.org/2000/svg" xmlns:xlink="http://www.w3.org/1999/xlink" xml:space="preserve" style="fill-rule:evenodd;clip-rule:evenodd;stroke-linecap:round;stroke-linejoin:round;stroke-miterlimit:1.5;">
    <g transform="matrix(0.992702,0,0,0.996441,0.34188,0.167247)">
        <rect x="0.871" y="0.845" width="45.972" height="46.141" style="fill:none;stroke:rgb(157,157,159);stroke-width:1.01px;"/>
    </g>
    <g transform="matrix(1,0,0,1,0,2)">
        <g transform="matrix(1.10824,0,0,0.940044,-0.303713,0.173584)">
            <rect x="2.806" y="2.895" width="38.301" height="8.606" style="fill:none;stroke:rgb(157,157,159);stroke-width:0.97px;"/>
        </g>
        <g transform="matrix(1,0,0,1,0.158835,-0.0661419)">
            <rect x="4.539" y="4.988" width="10.691" height="3.872" style="fill:none;stroke:rgb(157,157,159);stroke-width:1px;"/>
            <g transform="matrix(1,0,0,1,0.472509,0.878055)">
                <text x="11.403px" y="7.348px" style="font-family:'ArialUnicodeMS', 'Arial Unicode MS', sans-serif;font-size:5px;fill:rgb(157,157,159);">x</text>
            </g>
        </g>
        <g transform="matrix(1,0,0,1,14.1125,-0.0661419)">
            <rect x="4.539" y="4.988" width="10.691" height="3.872" style="fill:none;stroke:rgb(157,157,159);stroke-width:1px;"/>
            <g transform="matrix(1,0,0,1,0.472509,0.878055)">
                <text x="11.403px" y="7.348px" style="font-family:'ArialUnicodeMS', 'Arial Unicode MS', sans-serif;font-size:5px;fill:rgb(157,157,159);">x</text>
            </g>
        </g>
        <g transform="matrix(1,0,0,1,28.0663,-0.0661419)">
            <rect x="4.539" y="4.988" width="10.691" height="3.872" style="fill:none;stroke:rgb(157,157,159);stroke-width:1px;"/>
            <g transform="matrix(1,0,0,1,0.472509,0.878055)">
                <text x="11.403px" y="7.348px" style="font-family:'ArialUnicodeMS', 'Arial Unicode MS', sans-serif;font-size:5px;fill:rgb(157,157,159);">x</text>
            </g>
        </g>
    </g>
    <g transform="matrix(1,0,0,1,0,2)">
        <g transform="matrix(1.10824,0,0,0.940044,-0.303713,0.173584)">
            <rect x="2.806" y="2.895" width="38.301" height="8.606" style="fill:none;stroke:rgb(157,157,159);stroke-width:0.97px;"/>
        </g>
        <g transform="matrix(1,0,0,1,0.158835,-0.0661419)">
            <rect x="4.539" y="4.988" width="10.691" height="3.872" style="fill:none;stroke:rgb(157,157,159);stroke-width:1px;"/>
            <g transform="matrix(1,0,0,1,0.472509,0.878055)">
                <text x="11.403px" y="7.348px" style="font-family:'ArialUnicodeMS', 'Arial Unicode MS', sans-serif;font-size:5px;fill:rgb(157,157,159);">x</text>
            </g>
        </g>
        <g transform="matrix(1,0,0,1,14.1125,-0.0661419)">
            <rect x="4.539" y="4.988" width="10.691" height="3.872" style="fill:none;stroke:rgb(157,157,159);stroke-width:1px;"/>
            <g transform="matrix(1,0,0,1,0.472509,0.878055)">
                <text x="11.403px" y="7.348px" style="font-family:'ArialUnicodeMS', 'Arial Unicode MS', sans-serif;font-size:5px;fill:rgb(157,157,159);">x</text>
            </g>
        </g>
        <g transform="matrix(1,0,0,1,28.0663,-0.0661419)">
            <rect x="4.539" y="4.988" width="10.691" height="3.872" style="fill:none;stroke:rgb(157,157,159);stroke-width:1px;"/>
            <g transform="matrix(1,0,0,1,0.472509,0.878055)">
                <text x="11.403px" y="7.348px" style="font-family:'ArialUnicodeMS', 'Arial Unicode MS', sans-serif;font-size:5px;fill:rgb(157,157,159);">x</text>
            </g>
        </g>
    </g>
    <g transform="matrix(1,0,0,1,-0.117951,32.3484)">
        <g transform="matrix(1.10824,0,0,0.940044,-0.303713,0.173584)">
            <rect x="2.806" y="2.895" width="38.301" height="8.606" style="fill:none;stroke:rgb(157,157,159);stroke-width:0.97px;"/>
        </g>
        <g transform="matrix(1,0,0,1,0.158835,-0.0661419)">
            <rect x="4.539" y="4.988" width="10.691" height="3.872" style="fill:none;stroke:rgb(157,157,159);stroke-width:1px;"/>
            <g transform="matrix(1,0,0,1,0.472509,0.878055)">
                <text x="11.403px" y="7.348px" style="font-family:'ArialUnicodeMS', 'Arial Unicode MS', sans-serif;font-size:5px;fill:rgb(157,157,159);">x</text>
            </g>
        </g>
        <g transform="matrix(1,0,0,1,14.1125,-0.0661419)">
            <rect x="4.539" y="4.988" width="10.691" height="3.872" style="fill:none;stroke:rgb(157,157,159);stroke-width:1px;"/>
            <g transform="matrix(1,0,0,1,0.472509,0.878055)">
                <text x="11.403px" y="7.348px" style="font-family:'ArialUnicodeMS', 'Arial Unicode MS', sans-serif;font-size:5px;fill:rgb(157,157,159);">x</text>
            </g>
        </g>
        <g transform="matrix(1,0,0,1,28.0663,-0.0661419)">
            <rect x="4.539" y="4.988" width="10.691" height="3.872" style="fill:none;stroke:rgb(157,157,159);stroke-width:1px;"/>
            <g transform="matrix(1,0,0,1,0.472509,0.878055)">
                <text x="11.403px" y="7.348px" style="font-family:'ArialUnicodeMS', 'Arial Unicode MS', sans-serif;font-size:5px;fill:rgb(157,157,159);">x</text>
            </g>
        </g>
    </g>
    <g transform="matrix(1,0,0,1,-0.0143327,16.8097)">
        <g transform="matrix(1.10824,0,0,0.940044,-0.303713,0.173584)">
            <rect x="2.806" y="2.895" width="38.301" height="8.606" style="fill:none;stroke:rgb(157,157,159);stroke-width:0.97px;"/>
        </g>
        <g transform="matrix(1,0,0,1,0.158835,-0.0661419)">
            <rect x="4.539" y="4.988" width="10.691" height="3.872" style="fill:none;stroke:rgb(157,157,159);stroke-width:1px;"/>
            <g transform="matrix(1,0,0,1,0.472509,0.878055)">
                <text x="11.403px" y="7.348px" style="font-family:'ArialUnicodeMS', 'Arial Unicode MS', sans-serif;font-size:5px;fill:rgb(157,157,159);">x</text>
            </g>
        </g>
        <g transform="matrix(1,0,0,1,14.1125,-0.0661419)">
            <rect x="4.539" y="4.988" width="10.691" height="3.872" style="fill:none;stroke:rgb(157,157,159);stroke-width:1px;"/>
            <g transform="matrix(1,0,0,1,0.472509,0.878055)">
                <text x="11.403px" y="7.348px" style="font-family:'ArialUnicodeMS', 'Arial Unicode MS', sans-serif;font-size:5px;fill:rgb(157,157,159);">x</text>
            </g>
        </g>
        <g transform="matrix(1,0,0,1,28.0663,-0.0661419)">
            <rect x="4.539" y="4.988" width="10.691" height="3.872" style="fill:none;stroke:rgb(157,157,159);stroke-width:1px;"/>
            <g transform="matrix(1,0,0,1,0.472509,0.878055)">
                <text x="11.403px" y="7.348px" style="font-family:'ArialUnicodeMS', 'Arial Unicode MS', sans-serif;font-size:5px;fill:rgb(157,157,159);">x</text>
            </g>
        </g>
    </g>
</svg>
